<svg xmlns="http://www.w3.org/2000/svg" viewBox="0 0 1417.32283 1351.40591"><title>hoofdbeeld</title><path d="M167.88683,1273.79926l52.10067,27.13452v-52.03732ZM77.307,1226.62258l90.57981,47.1755v-84.42731ZM.8961,1186.824,77.307,1226.62141v-67.42416Z" style="fill:#f6cabb"/><path d="M.00006,1187.148l.89586-.32385-.89586-.46643Zm0-640.50753,38.16234-4.69107V260.16478L.00006,248.9903Z" style="fill:#f6cabb"/><polygon points="0 1186.358 0.896 1186.824 77.307 1159.197 77.307 1153.945 0 1181.596 0 1035.637 60.429 1020.175 0 1000.033 0 1186.358" style="fill:#ef9f8b"/><polygon points="0 546.64 0 876.131 77.307 864.951 77.307 815.083 38.162 819.305 38.162 567.564 0 564.796 38.162 560.803 38.162 541.949 0 546.64" style="fill:#ef9f8b"/><polygon points="0 1000.033 60.429 1020.175 77.307 1015.856 77.307 892.262 0 876.132 0 1000.033" style="fill:#ea816c"/><polygon points="219.988 1248.897 219.988 1300.934 566.404 1120.508 566.404 1083.324 219.988 1248.897" style="fill:#f6cabb"/><polygon points="122.174 1142.975 77.307 1159.197 77.307 1226.622 77.308 1226.622 167.886 1189.37 167.886 1161.049 122.174 1178.826 122.174 1142.975" style="fill:#ef9f8b"/><polygon points="122.174 1137.897 77.307 1153.945 77.307 1159.197 122.174 1142.975 122.174 1137.897" style="fill:#ea816c"/><polygon points="77.307 892.262 77.307 1015.856 122.174 1004.376 122.174 901.623 77.307 892.262" style="fill:#e76c59"/><polygon points="785.623 665.23 785.623 682.288 810.331 681.773 810.331 665.367 785.623 665.23" style="fill:#f6cabb"/><path d="M703.83118,977.16783l-137.42677,58.06425v48.09131l137.42677-65.68467ZM167.88643,1273.7989h0v-.00117" style="fill:#f6cabb"/><polygon points="219.987 1167.943 167.886 1189.371 167.886 1273.799 167.887 1273.798 219.987 1248.897 219.987 1167.943" style="fill:#ef9f8b"/><polygon points="566.405 1035.232 219.987 1181.596 219.987 1167.943 219.987 1248.897 566.405 1083.323 566.405 1035.232" style="fill:#ef9f8b"/><polygon points="219.987 1140.788 167.886 1161.049 167.886 1189.371 219.987 1167.943 219.987 1140.788" style="fill:#ea816c"/><polygon points="38.163 567.565 38.163 819.305 77.307 815.084 77.307 743.811 77.307 570.404 38.163 567.565" style="fill:#ea816c"/><polygon points="77.307 570.404 77.307 743.811 77.307 661.344 122.174 661.59 122.174 573.658 77.307 570.404" style="fill:#e76c59"/><path d="M774.95721,397.45069l10.66587,4.39308v-6.02929ZM122.17405,80.30693,192.02,43.47344l-69.846-35.17428Z" style="fill:#f6cabb"/><polygon points="647.25 664.471 647.25 685.171 785.623 682.288 785.623 665.23 647.25 664.471" style="fill:#ef9f8b"/><polygon points="580.534 664.105 580.534 686.561 647.25 685.171 647.25 664.471 580.534 664.105" style="fill:#ea816c"/><polygon points="122.174 573.658 122.174 661.59 167.886 661.841 167.886 605.64 219.988 608.239 219.988 580.753 122.174 573.658" style="fill:#e35a4b"/><polyline points="506.751 663.7 506.751 688.098 580.534 686.561 580.534 664.105 506.751 663.7" style="fill:#e76c59"/><polygon points="167.886 605.64 167.886 661.841 219.988 662.127 219.988 608.239 167.886 605.64" style="fill:#e24f43"/><polygon points="167.886 1126.448 122.174 1142.975 122.174 1178.826 167.886 1161.049 167.886 1126.448" style="fill:#ea816c"/><polygon points="167.886 1121.547 122.174 1137.897 122.174 1142.975 167.886 1126.448 167.886 1121.547" style="fill:#e76c59"/><polygon points="122.174 901.624 122.174 1004.376 219.988 979.348 219.988 971.849 167.886 984.858 167.886 911.161 122.174 901.624" style="fill:#e35a4b"/><polygon points="167.886 911.161 167.886 984.858 219.988 971.849 219.988 922.031 167.886 911.161" style="fill:#e24f43"/><polygon points="219.987 1107.61 167.886 1126.448 167.886 1161.049 219.987 1140.788 219.987 1107.61" style="fill:#e76c59"/><polygon points="219.987 1102.911 167.886 1121.546 167.886 1126.447 219.987 1107.61 219.987 1102.911" style="fill:#e35a4b"/><path d="M899.28625,542.16584v25.65084l45.71239,8.63591V552.9965Zm45.71239,62.27836-45.71239,1.51719v7.15574l-52.0989-5.42679-61.56441,2.04278v26.72329l24.708,1.23259v27.67721l134.6677.73922Z" style="fill:#f6cabb"/><polygon points="785.623 636.456 785.623 665.231 810.331 665.366 810.331 637.689 785.623 636.456" style="fill:#ef9f8b"/><polygon points="785.623 609.733 671.684 613.514 647.25 611.742 647.25 629.554 785.623 636.457 785.623 609.733" style="fill:#ef9f8b"/><polygon points="647.25 629.554 647.25 664.471 785.623 665.231 785.623 636.457 647.25 629.554" style="fill:#ea816c"/><polygon points="580.534 606.903 580.534 626.225 647.25 629.554 647.25 611.742 580.534 606.903" style="fill:#ea816c"/><polygon points="580.534 626.225 580.534 664.105 647.25 664.471 647.25 629.553 580.534 626.225" style="fill:#e76c59"/><polygon points="414.688 594.874 414.688 617.952 580.534 626.225 580.534 606.903 414.688 594.874" style="fill:#e76c59"/><polygon points="219.987 580.752 219.987 608.239 414.688 617.952 414.688 594.874 219.987 580.752" style="fill:#e35a4b"/><polygon points="414.688 617.952 414.688 663.194 506.751 663.699 580.534 664.105 580.534 626.225 414.688 617.952" style="fill:#e35a4b"/><polygon points="219.987 608.239 219.987 662.126 414.688 663.195 414.688 617.952 219.987 608.239" style="fill:#e24f43"/><path d="M973.41479,678.37565l-163.08406,3.39747v60.32942L921.48712,729.029v13.83624l51.92767-7.51007Zm0,164.98428-204.87911,77.7034v6.40009l-45.808,17.81452v15.90724l-18.89635,7.77172v8.21061L973.41479,863.266Z" style="fill:#f6cabb"/><polygon points="722.728 945.278 703.831 952.627 703.831 968.957 722.728 961.186 722.728 945.278" style="fill:#ef9f8b"/><polygon points="810.331 681.773 785.623 682.288 785.623 745.008 810.331 742.102 810.331 681.773" style="fill:#ef9f8b"/><polygon points="703.831 968.957 566.405 1025.475 566.405 1035.232 703.831 977.167 703.831 968.957" style="fill:#ef9f8b"/><polygon points="566.405 1025.475 219.987 1167.943 219.987 1181.596 566.405 1035.232 566.405 1025.475" style="fill:#ea816c"/><polygon points="703.831 952.626 566.405 1006.07 566.405 1025.476 703.831 968.957 703.831 952.626" style="fill:#ea816c"/><polygon points="566.405 1006.07 219.987 1140.788 219.987 1167.943 566.405 1025.475 566.405 1006.07" style="fill:#e76c59"/><polygon points="785.623 682.288 647.25 685.171 647.25 712.286 722.728 708.111 722.728 728.035 768.536 724.218 768.536 747.018 785.623 745.008 785.623 682.288" style="fill:#ea816c"/><polygon points="722.728 708.111 647.25 712.286 647.25 734.325 722.728 728.035 722.728 708.111" style="fill:#e76c59"/><polygon points="647.25 685.171 580.533 686.561 580.533 715.976 647.25 712.286 647.25 685.171" style="fill:#e76c59"/><polygon points="647.25 712.286 580.533 715.976 580.533 739.885 647.25 734.325 647.25 712.286" style="fill:#e35a4b"/><polygon points="580.534 686.561 506.75 688.098 506.75 720.057 580.534 715.976 580.534 686.561" style="fill:#e35a4b"/><polygon points="580.534 715.976 506.75 720.057 506.75 746.033 580.534 739.885 580.534 715.976" style="fill:#e24f43"/><polygon points="768.536 921.064 722.728 938.437 722.728 945.278 768.536 927.464 768.536 921.064" style="fill:#ef9f8b"/><polygon points="722.728 938.437 703.831 945.604 703.831 952.626 722.728 945.278 722.728 938.437" style="fill:#ea816c"/><polygon points="703.831 945.603 572.208 995.524 566.405 994.313 566.405 1006.07 703.831 952.626 703.831 945.603" style="fill:#e76c59"/><polygon points="539.374 988.673 414.689 1033.271 414.689 1037.215 219.988 1107.61 219.988 1140.788 566.404 1006.07 566.404 994.313 539.374 988.673" style="fill:#e35a4b"/><polygon points="414.688 1033.271 219.988 1102.911 219.988 1107.61 414.688 1037.215 414.688 1033.271" style="fill:#e24f43"/><polygon points="768.536 724.218 722.728 728.035 722.728 752.405 768.536 747.018 768.536 724.218" style="fill:#e76c59"/><polygon points="722.728 728.035 647.25 734.325 647.25 753.61 580.534 760.806 580.534 769.129 722.728 752.406 722.728 728.035" style="fill:#e35a4b"/><polygon points="580.534 760.806 506.75 768.764 506.75 777.807 580.534 769.129 580.534 760.806" style="fill:#e24f43"/><polygon points="647.25 734.325 580.533 739.885 580.533 760.806 647.25 753.61 647.25 734.325" style="fill:#e24f43"/><polygon points="580.534 739.885 506.75 746.034 506.75 768.764 580.534 760.806 580.534 739.885" style="fill:#e1473d"/><polygon points="921.487 729.029 810.331 742.103 810.331 758.941 921.487 742.865 921.487 729.029" style="fill:#ef9f8b"/><polygon points="810.331 742.103 785.623 745.008 785.623 750.151 768.536 752.297 768.536 764.985 810.331 758.941 810.331 742.103" style="fill:#ea816c"/><polygon points="785.623 745.008 768.536 747.018 768.536 752.297 785.623 750.151 785.623 745.008" style="fill:#e76c59"/><polygon points="328.674 944.71 219.987 971.849 219.987 979.348 343.373 947.777 328.674 944.71" style="fill:#e24f43"/><polygon points="768.536 752.296 722.728 758.048 722.728 771.61 768.536 764.985 768.536 752.296" style="fill:#e76c59"/><polygon points="722.728 758.048 506.75 785.163 506.75 802.845 722.728 771.61 722.728 758.048" style="fill:#e35a4b"/><polygon points="219.987 922.033 219.987 971.849 328.674 944.71 219.987 922.033" style="fill:#e1473d"/><polygon points="768.536 747.018 722.728 752.405 722.728 758.048 768.536 752.296 768.536 747.018" style="fill:#e35a4b"/><polygon points="722.728 752.405 580.534 769.129 580.534 772.355 506.75 781.312 506.75 785.163 722.728 758.048 722.728 752.405" style="fill:#e24f43"/><polygon points="580.534 769.129 506.75 777.807 506.75 781.312 580.534 772.355 580.534 769.129" style="fill:#e1473d"/><polygon points="785.623 401.844 785.623 515.236 899.286 542.166 899.286 448.661 785.623 401.844" style="fill:#f6cabb"/><polygon points="474.369 318.128 474.369 441.491 785.623 515.236 785.623 401.844 774.957 397.451 716.09 406.482 474.369 318.128" style="fill:#ef9f8b"/><path d="M785.62294,515.23587v31.10577l113.66338,21.47482V542.16563Zm113.66338,90.7253-52.099,1.729,52.099,5.42678Z" style="fill:#ef9f8b"/><polygon points="474.369 441.491 474.369 471.106 647.25 506.73 647.25 520.199 785.623 546.342 785.623 515.236 474.369 441.491" style="fill:#ea816c"/><polygon points="474.369 471.106 474.369 515.156 568.449 505.311 647.25 520.198 647.25 506.729 474.369 471.106" style="fill:#e76c59"/><path d="M38.16287,123.91609v.69461l.75681-.399Zm0,34.76951V260.16421l84.01135,24.59887v-95.37Z" style="fill:#f6cabb"/><polygon points="38.163 260.164 38.163 381.22 122.174 398.532 122.174 284.763 38.163 260.164" style="fill:#ef9f8b"/><polygon points="38.163 381.22 38.163 541.95 77.307 537.138 77.307 488.197 122.174 494.171 122.174 398.532 38.163 381.22" style="fill:#ea816c"/><polygon points="77.307 537.138 38.163 541.95 38.163 560.803 77.307 556.707 77.307 537.138" style="fill:#e76c59"/><polygon points="77.307 488.197 77.307 537.138 122.174 531.623 122.174 494.171 77.307 488.197" style="fill:#e76c59"/><polygon points="122.174 531.623 77.307 537.138 77.307 556.707 122.174 552.011 122.174 531.623" style="fill:#e35a4b"/><polygon points="122.174 189.393 122.174 284.763 219.988 313.404 219.988 225.146 122.174 189.393" style="fill:#ef9f8b"/><polygon points="122.174 284.763 122.174 398.532 219.988 418.688 219.988 381.22 219.988 313.404 122.174 284.763" style="fill:#ea816c"/><polygon points="122.174 398.532 122.174 494.171 219.988 507.193 219.988 418.687 122.174 398.532" style="fill:#e76c59"/><polygon points="122.174 494.171 122.174 531.623 219.988 519.599 219.988 541.776 219.988 507.193 122.174 494.171" style="fill:#e35a4b"/><polygon points="219.987 519.599 122.174 531.623 122.174 552.012 219.987 541.776 219.987 519.599" style="fill:#e24f43"/><polygon points="219.987 225.146 219.987 313.403 414.688 370.413 414.688 427.351 474.369 441.491 474.369 318.128 219.987 225.146" style="fill:#ea816c"/><polygon points="219.987 313.404 219.987 381.22 414.688 427.351 414.688 370.413 219.987 313.404" style="fill:#e76c59"/><polygon points="414.688 427.351 414.688 458.808 474.37 471.106 474.37 441.491 414.688 427.351" style="fill:#e76c59"/><polygon points="219.987 381.22 219.987 418.688 414.688 458.808 414.688 427.351 219.987 381.22" style="fill:#e35a4b"/><polygon points="414.688 458.808 414.688 521.401 474.37 515.156 474.37 471.106 414.688 458.808" style="fill:#e35a4b"/><polygon points="219.987 418.687 219.987 507.193 365.425 526.556 414.688 521.401 414.688 458.808 219.987 418.687" style="fill:#e24f43"/><polygon points="219.987 507.193 219.987 541.776 365.425 526.556 219.987 507.193" style="fill:#e1473d"/><polygon points="122.174 827.998 77.307 833.445 77.307 864.952 122.174 858.463 122.174 833.445 122.174 827.998" style="fill:#e76c59"/><polygon points="122.174 810.244 77.307 815.083 77.307 833.445 122.174 827.998 122.174 810.244" style="fill:#e35a4b"/><polygon points="77.307 661.344 77.307 743.81 122.174 741.329 122.174 661.59 77.307 661.344" style="fill:#e35a4b"/><polygon points="122.174 741.329 77.307 743.811 77.307 815.083 122.174 810.244 122.174 741.329" style="fill:#e24f43"/><polygon points="122.174 661.59 122.174 741.329 167.886 738.8 167.886 661.841 122.174 661.59" style="fill:#e24f43"/><polygon points="167.886 738.8 122.174 741.329 122.174 810.244 122.174 778.083 167.886 774.273 167.886 738.8" style="fill:#e1473d"/><polygon points="414.688 663.195 414.688 690.016 506.751 688.098 506.751 663.7 414.688 663.195" style="fill:#e35a4b"/><polygon points="219.987 662.126 219.987 735.918 219.987 694.072 414.688 690.016 414.688 663.195 219.987 662.126" style="fill:#e24f43"/><polygon points="167.886 661.841 167.886 738.8 219.988 735.918 219.988 662.126 167.886 661.841" style="fill:#e1473d"/><polygon points="219.987 735.919 167.886 738.8 167.886 774.273 219.987 769.931 219.987 735.919" style="fill:#e03f38"/><polygon points="167.886 827.706 122.174 833.444 122.174 858.463 167.886 851.852 167.886 827.706" style="fill:#e35a4b"/><polygon points="219.987 821.165 167.886 827.705 167.886 851.852 219.987 844.317 219.987 821.165" style="fill:#e24f43"/><polygon points="167.886 822.449 122.174 827.998 122.174 833.445 167.886 827.705 167.886 822.449" style="fill:#e24f43"/><polygon points="219.987 816.124 167.886 822.449 167.886 827.706 219.987 821.165 219.987 816.124" style="fill:#e1473d"/><polygon points="167.886 805.313 122.174 810.244 122.174 827.998 167.886 822.449 167.886 805.313" style="fill:#e1473d"/><polygon points="219.987 799.694 167.886 805.314 167.886 822.449 219.987 816.124 219.987 799.694" style="fill:#e03f38"/><polygon points="167.886 774.273 122.174 778.082 122.174 810.244 167.886 805.314 167.886 774.273" style="fill:#e03f38"/><polygon points="219.987 769.931 167.886 774.273 167.886 805.314 219.987 799.694 219.987 769.931" style="fill:#e03c36"/><polygon points="414.688 663.195 506.751 663.7 506.751 663.699 414.688 663.194 414.688 663.195" style="fill:#e24f43"/><polygon points="219.987 662.126 219.987 662.126 414.688 663.195 414.688 663.194 219.987 662.126" style="fill:#e1473d"/><polygon points="506.751 688.098 414.688 690.016 414.688 725.149 506.751 720.057 506.751 688.098" style="fill:#e24f43"/><polygon points="414.688 690.016 219.988 694.073 219.988 735.919 414.688 725.149 414.688 690.016" style="fill:#e1473d"/><polygon points="506.751 720.057 414.688 725.149 414.688 753.706 506.751 746.034 506.751 720.057" style="fill:#e1473d"/><polygon points="414.688 725.149 219.988 735.918 219.988 769.931 414.688 753.706 414.688 725.149" style="fill:#e03f38"/><polygon points="506.751 768.764 414.688 778.694 414.688 788.634 506.751 777.807 506.751 768.764" style="fill:#e1473d"/><polygon points="414.688 778.694 219.988 799.694 219.988 811.534 414.688 788.635 414.688 778.694" style="fill:#e03f38"/><polygon points="506.751 746.034 414.688 753.706 414.688 778.694 506.751 768.764 506.751 746.034" style="fill:#e03f38"/><polygon points="414.688 753.706 219.988 769.931 219.988 799.694 414.688 778.694 414.688 753.706" style="fill:#e03c36"/><polygon points="506.751 785.163 414.688 796.72 414.688 816.159 506.751 802.845 506.751 785.163" style="fill:#e24f43"/><polygon points="414.688 796.72 219.988 821.164 219.988 844.317 414.688 816.159 414.688 796.72" style="fill:#e1473d"/><polygon points="506.751 781.312 414.688 792.488 414.688 796.72 506.751 785.163 506.751 781.312" style="fill:#e1473d"/><polygon points="414.688 792.488 219.988 816.124 219.988 821.164 414.688 796.72 414.688 792.488" style="fill:#e03f38"/><polygon points="506.751 777.807 414.688 788.635 414.688 792.488 506.751 781.312 506.751 777.807" style="fill:#e03f38"/><polygon points="414.688 788.634 219.988 811.534 219.988 816.124 414.688 792.488 414.688 788.634" style="fill:#e03c36"/><polygon points="0 1035.637 0 1181.596 77.307 1153.945 77.307 1025.801 60.429 1020.175 0 1035.637" style="fill:#ea816c"/><polygon points="77.307 1015.857 60.428 1020.175 77.307 1025.801 77.307 1015.857" style="fill:#e76c59"/><polygon points="77.307 1025.801 77.307 1153.945 122.174 1137.897 122.174 1040.757 77.307 1025.801" style="fill:#e76c59"/><polygon points="122.174 1004.376 77.307 1015.857 77.307 1025.801 122.174 1040.757 122.174 1004.376" style="fill:#e35a4b"/><polygon points="122.174 1040.757 122.174 1137.897 167.886 1121.546 167.886 1090.728 219.988 1073.361 122.174 1040.757" style="fill:#e35a4b"/><polygon points="219.987 979.348 122.174 1004.376 122.174 1040.756 219.987 1073.36 219.987 979.348" style="fill:#e24f43"/><polygon points="219.987 1073.36 167.886 1090.728 167.886 1121.547 219.987 1102.911 219.987 1073.36" style="fill:#e24f43"/><polygon points="414.688 962.657 414.688 1008.46 499.198 980.29 414.688 962.657" style="fill:#e35a4b"/><polygon points="377.387 954.874 219.987 997.503 219.987 1073.361 414.688 1008.461 414.688 962.657 377.387 954.874" style="fill:#e24f43"/><polygon points="499.198 980.29 414.688 1008.46 414.688 1033.271 539.374 988.673 499.198 980.29" style="fill:#e24f43"/><polygon points="414.688 1008.46 219.988 1073.361 219.988 1102.911 414.688 1033.271 414.688 1008.46" style="fill:#e1473d"/><polygon points="343.372 947.777 219.987 979.348 219.987 997.503 377.387 954.875 343.372 947.777" style="fill:#e1473d"/><path d="M.0003,144.736l38.16234,13.94947V124.61055Zm38.91975-20.52384L122.174,156.71773V80.30693ZM192.02,43.4733,785.623,342.41066v53.40367l95.13127-14.59365L211.52589,33.1865Z" style="fill:#f6cabb"/><polygon points="192.02 43.473 122.174 80.307 122.174 156.718 219.987 194.908 219.987 168.864 774.957 397.45 785.623 395.814 785.623 342.411 192.02 43.473" style="fill:#ef9f8b"/><polygon points="219.987 168.864 219.987 194.908 474.369 294.228 474.369 318.128 716.09 406.481 774.957 397.451 219.987 168.864" style="fill:#ea816c"/><polygon points="38.92 124.212 38.163 124.611 38.163 158.686 122.174 189.393 122.174 156.717 38.92 124.212" style="fill:#ef9f8b"/><polygon points="122.174 156.717 122.174 189.393 219.988 225.146 219.988 194.908 122.174 156.717" style="fill:#ea816c"/><polygon points="219.987 194.908 219.987 225.146 474.369 318.128 474.369 294.228 219.987 194.908" style="fill:#e76c59"/><polygon points="944.999 576.453 944.999 604.444 1071.019 600.262 944.999 576.453" style="fill:#f6cabb"/><polygon points="0 564.797 38.162 567.565 38.162 560.803 0 564.797" style="fill:#ea816c"/><polygon points="38.163 560.803 38.163 560.803 38.163 567.564 77.307 570.404 77.307 566.512 38.163 563.561 38.163 560.803" style="fill:#e76c59"/><polygon points="77.307 566.512 77.307 570.404 122.174 573.658 122.174 569.895 77.307 566.512" style="fill:#e35a4b"/><polygon points="122.174 569.895 122.174 573.658 219.988 580.752 219.988 577.27 122.174 569.895" style="fill:#e24f43"/><path d="M899.28618,567.81654v38.1447l45.71231-1.51711V576.453ZM785.62286,601.27719v8.45586l61.565-2.04285Z" style="fill:#ef9f8b"/><polygon points="647.25 586.864 647.25 611.742 671.684 613.515 785.623 609.733 785.623 601.277 647.25 586.864" style="fill:#ea816c"/><polygon points="580.534 579.914 580.534 606.903 647.25 611.742 647.25 586.864 580.534 579.914" style="fill:#e76c59"/><polygon points="474.369 568.856 474.369 596.451 414.688 591.951 414.688 594.874 580.534 606.903 580.534 579.914 474.369 568.856" style="fill:#e35a4b"/><polygon points="219.987 577.27 219.987 580.752 414.688 594.874 414.688 591.951 219.987 577.27" style="fill:#e24f43"/><polygon points="785.623 546.341 785.623 601.277 847.188 607.69 899.286 605.961 899.286 567.816 785.623 546.341" style="fill:#ea816c"/><polygon points="647.25 520.198 647.25 586.864 785.623 601.277 785.623 546.341 647.25 520.198" style="fill:#e76c59"/><polygon points="568.449 505.311 474.369 515.156 474.369 541.061 580.534 555.195 580.534 579.914 647.249 586.864 647.249 520.198 568.449 505.311" style="fill:#e35a4b"/><polygon points="474.369 541.061 474.369 568.855 580.534 579.914 580.534 555.195 474.369 541.061" style="fill:#e24f43"/><polygon points="77.307 556.707 38.163 560.803 38.163 563.56 77.307 566.512 77.307 556.707" style="fill:#e35a4b"/><polygon points="122.174 552.011 77.307 556.707 77.307 566.512 122.174 569.895 122.174 552.011" style="fill:#e24f43"/><polygon points="219.987 541.776 122.174 552.011 122.174 569.895 219.987 577.27 219.987 541.776" style="fill:#e1473d"/><polygon points="414.688 562.639 414.688 591.951 474.37 596.451 474.37 568.856 414.688 562.639" style="fill:#e24f43"/><polygon points="219.987 541.776 219.987 541.776 219.987 577.27 414.688 591.951 414.688 562.639 219.987 542.358 219.987 541.776" style="fill:#e1473d"/><polygon points="474.369 515.156 414.688 521.401 414.688 533.115 474.369 541.061 474.369 515.156" style="fill:#e24f43"/><polygon points="414.688 521.401 365.425 526.556 414.688 533.115 414.688 521.401" style="fill:#e1473d"/><polygon points="414.688 533.115 414.688 562.639 474.37 568.855 474.37 541.061 414.688 533.115" style="fill:#e1473d"/><polygon points="365.425 526.556 219.988 541.775 219.988 542.359 414.688 562.639 414.688 533.115 365.425 526.556" style="fill:#e03f38"/><polygon points="1057.136 723.248 973.415 735.355 973.415 843.36 1274.871 729.029 1057.136 723.248" style="fill:#f6cabb"/><polygon points="0 876.131 77.307 892.262 77.307 864.951 0 876.131" style="fill:#ea816c"/><path d="M77.30678,892.26156,0,876.13142Z" style="fill:#e76c59"/><polygon points="77.307 864.951 77.307 864.951 77.307 892.261 122.174 901.623 122.174 884.869 77.307 892.261 77.307 864.951" style="fill:#e76c59"/><polygon points="77.307 892.261 77.307 892.262 122.174 901.624 122.174 901.623 77.307 892.261" style="fill:#e35a4b"/><polygon points="167.886 877.337 122.174 884.869 122.174 901.623 167.886 911.161 167.886 877.337" style="fill:#e35a4b"/><polygon points="122.174 901.623 122.174 901.623 167.886 911.162 167.886 911.16 122.174 901.623" style="fill:#e24f43"/><polygon points="219.987 868.753 167.886 877.337 167.886 911.16 219.987 922.032 219.987 922.033 219.987 868.753" style="fill:#e24f43"/><polygon points="167.886 911.161 167.886 911.162 219.988 922.032 219.988 922.031 167.886 911.161" style="fill:#e1473d"/><polygon points="973.415 735.355 921.487 742.865 921.487 807.514 768.536 848.939 768.536 921.064 973.415 843.36 973.415 735.355" style="fill:#ef9f8b"/><polygon points="768.536 848.939 763.384 850.334 763.384 908.549 722.728 923.091 722.728 938.437 768.536 921.064 768.536 848.939" style="fill:#ea816c"/><polygon points="722.728 923.091 703.831 929.85 703.831 945.603 722.728 938.436 722.728 923.091" style="fill:#e76c59"/><polygon points="703.831 929.85 566.405 979.005 566.405 994.313 572.208 995.523 703.831 945.603 703.831 929.85" style="fill:#e35a4b"/><polygon points="566.405 979.005 539.374 988.673 566.405 994.313 566.405 979.005" style="fill:#e24f43"/><polygon points="921.487 742.865 810.331 758.941 810.331 824.441 768.536 834.877 768.536 848.938 921.487 807.514 921.487 742.865" style="fill:#ea816c"/><polygon points="810.331 758.941 768.536 764.985 768.536 834.878 810.331 824.441 810.331 758.941" style="fill:#e76c59"/><polygon points="768.536 834.878 722.728 846.316 722.728 850.709 763.384 840.306 763.384 850.334 768.536 848.939 768.536 834.878" style="fill:#e76c59"/><polygon points="722.728 846.316 566.405 885.349 566.405 890.709 722.728 850.709 722.728 846.316" style="fill:#e35a4b"/><polygon points="566.405 885.349 414.688 923.232 414.688 929.529 566.405 890.709 566.405 885.349" style="fill:#e24f43"/><polygon points="414.688 923.232 328.674 944.71 343.372 947.777 414.688 929.529 414.688 923.232" style="fill:#e1473d"/><polygon points="768.536 764.985 722.728 771.61 722.728 846.316 768.536 834.878 768.536 764.985" style="fill:#e35a4b"/><polygon points="722.728 771.61 506.75 802.845 506.75 806.615 566.405 797.745 566.405 885.35 722.728 846.315 722.728 771.61" style="fill:#e24f43"/><polygon points="566.405 797.745 506.75 806.615 506.75 821.507 414.688 836.675 414.688 923.233 566.405 885.349 566.405 797.745" style="fill:#e1473d"/><polygon points="414.688 836.675 219.988 868.753 219.988 922.033 328.674 944.71 414.688 923.232 414.688 836.675" style="fill:#e03f38"/><polygon points="122.174 858.463 77.307 864.952 77.307 892.261 122.174 884.869 122.174 858.463" style="fill:#e35a4b"/><polygon points="167.886 851.852 122.174 858.463 122.174 884.869 167.886 877.337 167.886 851.852" style="fill:#e24f43"/><polygon points="219.987 844.317 167.886 851.852 167.886 877.338 219.987 868.753 219.987 844.317" style="fill:#e1473d"/><polygon points="506.751 802.845 414.688 816.159 414.688 820.303 506.751 806.614 506.751 802.845" style="fill:#e1473d"/><polygon points="414.688 816.159 219.988 844.317 219.988 849.252 414.688 820.303 414.688 816.159" style="fill:#e03f38"/><polygon points="506.751 806.615 414.688 820.303 414.688 836.675 506.751 821.507 506.751 806.615" style="fill:#e03f38"/><polygon points="414.688 820.303 219.988 849.252 219.988 868.753 414.688 836.675 414.688 820.303" style="fill:#e03c36"/><polygon points="763.384 850.334 722.728 861.344 722.728 923.091 763.384 908.549 763.384 850.334" style="fill:#e76c59"/><polygon points="722.728 861.345 566.405 903.682 566.405 957.888 703.831 912.08 703.831 929.85 722.728 923.091 722.728 861.345" style="fill:#e35a4b"/><polygon points="566.405 903.682 414.688 944.772 414.688 962.657 499.198 980.29 566.405 957.888 566.405 903.682" style="fill:#e24f43"/><polygon points="414.688 944.772 377.387 954.875 414.688 962.657 414.688 944.772" style="fill:#e1473d"/><polygon points="703.831 912.079 566.405 957.888 566.405 979.005 703.831 929.85 703.831 912.079" style="fill:#e24f43"/><polygon points="566.405 957.888 499.198 980.29 539.374 988.673 566.405 979.005 566.405 957.888" style="fill:#e1473d"/><polygon points="763.384 840.306 722.728 850.71 722.728 861.345 763.384 850.333 763.384 840.306" style="fill:#e35a4b"/><polygon points="722.728 850.709 566.405 890.709 566.405 903.682 722.728 861.345 722.728 850.709" style="fill:#e24f43"/><polygon points="566.405 890.709 414.688 929.529 414.688 944.772 566.405 903.682 566.405 890.709" style="fill:#e1473d"/><polygon points="414.688 929.529 343.372 947.777 377.387 954.874 414.688 944.772 414.688 929.529" style="fill:#e03f38"/><path d="M275.05176,1329.3819H255.98438l-3.63721,8.7998H242.6084l18.3042-41.06738h9.38672l18.36328,41.06738H278.689Zm-2.99219-7.2168-6.51221-15.72265-6.5122,15.72265Z" style="fill:#323334"/><path d="M302.15576,1307.32233H310.252v7.04h-7.86133v23.81933h-9.15234v-23.81933h-4.86963v-7.04h4.86963v-1.4082a11.51279,11.51279,0,0,1,3.19727-8.56543q3.197-3.16846,9.00537-3.168a16.77179,16.77179,0,0,1,3.90185.44043,9.49342,9.49342,0,0,1,3.08008,1.26074l-2.40576,6.62988a6.258,6.258,0,0,0-3.6958-1.11523q-4.16674,0-4.16553,4.57617Z" style="fill:#323334"/><path d="M317.644,1337.68268a20.02832,20.02832,0,0,1-5.98437-2.43457l3.05078-6.57031a19.21711,19.21711,0,0,0,5.104,2.20019,21.38073,21.38073,0,0,0,5.8667.85059q5.80811,0,5.80811-2.875a2.0354,2.0354,0,0,0-1.584-1.93652,23.60243,23.60243,0,0,0-4.86914-.99708,46.82407,46.82407,0,0,1-6.395-1.3496,9.90882,9.90882,0,0,1-4.3706-2.69825,7.67436,7.67436,0,0,1-1.84815-5.51465,8.63811,8.63811,0,0,1,1.73047-5.30957,11.14106,11.14106,0,0,1,5.0459-3.60839,21.56631,21.56631,0,0,1,7.832-1.29,30.7752,30.7752,0,0,1,6.65869.73242,18.68481,18.68481,0,0,1,5.48535,2.02441l-3.05078,6.5127a18.21447,18.21447,0,0,0-9.09326-2.34766,9.24668,9.24668,0,0,0-4.40039.82227,2.41439,2.41439,0,0,0-1.46631,2.11133,2.096,2.096,0,0,0,1.584,2.05371,27.9604,27.9604,0,0,0,5.04541,1.11425,54.40483,54.40483,0,0,1,6.33593,1.37891,9.51778,9.51778,0,0,1,4.28272,2.66992,7.57614,7.57614,0,0,1,1.81885,5.39746,8.32931,8.32931,0,0,1-1.76026,5.22071,11.23659,11.23659,0,0,1-5.1333,3.5498,22.87718,22.87718,0,0,1-8.0083,1.26172A30.6459,30.6459,0,0,1,317.644,1337.68268Z" style="fill:#323334"/><path d="M366.103,1336.65631a9.38961,9.38961,0,0,1-3.31494,1.4961,16.787,16.787,0,0,1-4.13623.499q-5.6316,0-8.71192-2.875-3.08056-2.874-3.08008-8.44824v-12.96582h-4.86963v-7.04h4.86963v-7.68555h9.15235v7.68555h7.86133v7.04h-7.86133V1327.211a4.3079,4.3079,0,0,0,1.02636,3.08008,3.80354,3.80354,0,0,0,2.9043,1.085,5.8839,5.8839,0,0,0,3.6958-1.17285Z" style="fill:#323334"/><path d="M402.9458,1306.61823v31.56347h-8.68262v-3.75488a12.12156,12.12156,0,0,1-4.3413,3.13867,13.66013,13.66013,0,0,1-5.45655,1.08594q-6.219,0-9.856-3.5791-3.63869-3.57715-3.6377-10.61914v-17.835H380.124v16.48535q0,7.62744,6.395,7.627a6.87405,6.87405,0,0,0,5.27979-2.14062q1.99439-2.14161,1.99512-6.36621v-15.60547Z" style="fill:#323334"/><path d="M443.48535,1294.65045v43.53125h-8.74121V1334.544q-3.40356,4.10742-9.85644,4.10742a16.387,16.387,0,0,1-8.0669-1.99512,14.27757,14.27757,0,0,1-5.66162-5.69043,18.89486,18.89486,0,0,1,0-17.13183,14.28376,14.28376,0,0,1,5.66162-5.69043,16.3969,16.3969,0,0,1,8.0669-1.99414q6.04174,0,9.4458,3.8125v-15.31153Zm-11.26416,34.11524a9.99913,9.99913,0,0,0,0-12.73145,8.21544,8.21544,0,0,0-11.55762,0,9.99916,9.99916,0,0,0,0,12.73145,8.21544,8.21544,0,0,0,11.55762,0Z" style="fill:#323334"/><path d="M482.499,1324.98151H458.62109a7.42833,7.42833,0,0,0,3.05079,4.63476,10.098,10.098,0,0,0,5.98388,1.70118,12.10862,12.10862,0,0,0,4.37061-.7334,10.57592,10.57592,0,0,0,3.5498-2.31739l4.86914,5.28028q-4.459,5.10351-13.02392,5.10449a20.59912,20.59912,0,0,1-9.4458-2.083,15.2525,15.2525,0,0,1-6.33594-5.77929,15.91405,15.91405,0,0,1-2.22949-8.38868,16.1311,16.1311,0,0,1,2.20019-8.36035,15.41216,15.41216,0,0,1,6.04248-5.80859,18.7137,18.7137,0,0,1,16.98438-.08789,14.57257,14.57257,0,0,1,5.896,5.71972,17.05853,17.05853,0,0,1,2.1416,8.6543Q482.6748,1322.69343,482.499,1324.98151ZM461.085,1314.83209a7.4921,7.4921,0,0,0-2.58154,4.81055h15.54736a7.56909,7.56909,0,0,0-2.58154-4.78125,7.71976,7.71976,0,0,0-5.1626-1.79A7.8794,7.8794,0,0,0,461.085,1314.83209Z" style="fill:#323334"/><path d="M519.40088,1324.98151H495.523a7.42836,7.42836,0,0,0,3.05078,4.63476,10.09808,10.09808,0,0,0,5.98389,1.70118,12.10853,12.10853,0,0,0,4.3706-.7334,10.576,10.576,0,0,0,3.54981-2.31739l4.86914,5.28028q-4.459,5.10351-13.02393,5.10449a20.59915,20.59915,0,0,1-9.4458-2.083,15.25256,15.25256,0,0,1-6.33594-5.77929,15.91414,15.91414,0,0,1-2.22949-8.38868,16.13111,16.13111,0,0,1,2.2002-8.36035,15.41216,15.41216,0,0,1,6.04248-5.80859,18.71368,18.71368,0,0,1,16.98437-.08789,14.57265,14.57265,0,0,1,5.896,5.71972,17.05863,17.05863,0,0,1,2.1416,8.6543Q519.57666,1322.69343,519.40088,1324.98151Zm-21.41406-10.14942a7.49207,7.49207,0,0,0-2.58155,4.81055h15.54737a7.56906,7.56906,0,0,0-2.58155-4.78125,7.71974,7.71974,0,0,0-5.16259-1.79A7.8794,7.8794,0,0,0,497.98682,1314.83209Z" style="fill:#323334"/><path d="M538.73145,1307.32233a16.4367,16.4367,0,0,1,6.42431-1.17285v8.44726q-1.52637-.11572-2.05371-.11718a8.38891,8.38891,0,0,0-6.16016,2.20019q-2.23021,2.2002-2.229,6.60059v14.90136h-9.15234v-31.56347h8.7417v4.166A10.1788,10.1788,0,0,1,538.73145,1307.32233Z" style="fill:#323334"/><path d="M576.92432,1308.17291a14.5477,14.5477,0,0,1,5.66162,5.69043,18.77287,18.77287,0,0,1,0,17.07325,14.54134,14.54134,0,0,1-5.66162,5.69043,16.08245,16.08245,0,0,1-8.0083,2.02441q-6.04322,0-9.50391-3.81348v14.72559h-9.15234v-42.94531h8.74169v3.63769q3.40137-4.106,9.91456-4.10644A16.08185,16.08185,0,0,1,576.92432,1308.17291Zm-3.81348,20.59278a10.09934,10.09934,0,0,0,0-12.73145,8.21557,8.21557,0,0,0-11.55762,0,10.09934,10.09934,0,0,0,0,12.73145,8.21557,8.21557,0,0,0,11.55762,0Z" style="fill:#323334"/><path d="M603.73486,1307.32233a16.43679,16.43679,0,0,1,6.42432-1.17285v8.44726q-1.52637-.11572-2.05371-.11718a8.38889,8.38889,0,0,0-6.16016,2.20019q-2.23021,2.2002-2.229,6.60059v14.90136H590.564v-31.56347h8.7417v4.166A10.17886,10.17886,0,0,1,603.73486,1307.32233Z" style="fill:#323334"/><path d="M621.04248,1336.56842a15.46982,15.46982,0,0,1-6.18945-5.77929,16.89818,16.89818,0,0,1,0-16.77832,15.47653,15.47653,0,0,1,6.18945-5.7793,20.20086,20.20086,0,0,1,17.86426,0,15.5375,15.5375,0,0,1,6.16015,5.7793,16.89811,16.89811,0,0,1,0,16.77832,15.53072,15.53072,0,0,1-6.16015,5.77929,20.19234,20.19234,0,0,1-17.86426,0Zm14.72559-7.80273a10.09934,10.09934,0,0,0,0-12.73145,7.62393,7.62393,0,0,0-5.77881-2.376,7.71752,7.71752,0,0,0-5.80811,2.376,9.99916,9.99916,0,0,0,0,12.73145,7.71752,7.71752,0,0,0,5.80811,2.376A7.62393,7.62393,0,0,0,635.76807,1328.76569Z" style="fill:#323334"/><path d="M643.6001,1348.27252l2.46386-6.62988a6.55808,6.55808,0,0,0,3.87208,1.11524,3.467,3.467,0,0,0,2.75732-1.14454,5.09745,5.09745,0,0,0,.99756-3.43164v-31.56347h9.15234v31.50488q0,5.51367-3.13867,8.71191-3.13916,3.19776-8.771,3.19727Q646.12378,1350.03229,643.6001,1348.27252Zm10.56006-47.5205a4.969,4.969,0,0,1,0-7.27539,5.80617,5.80617,0,0,1,4.10693-1.4668,5.9534,5.9534,0,0,1,4.10693,1.4082,4.516,4.516,0,0,1,1.584,3.52051,4.98065,4.98065,0,0,1-1.584,3.7832,5.73646,5.73646,0,0,1-4.10693,1.4961A5.80556,5.80556,0,0,1,654.16016,1300.752Z" style="fill:#323334"/><path d="M701.91553,1324.98151H678.0376a7.42836,7.42836,0,0,0,3.05078,4.63476,10.09808,10.09808,0,0,0,5.98389,1.70118,12.10857,12.10857,0,0,0,4.3706-.7334,10.576,10.576,0,0,0,3.54981-2.31739l4.86914,5.28028q-4.459,5.10351-13.02393,5.10449a20.59912,20.59912,0,0,1-9.4458-2.083,15.25256,15.25256,0,0,1-6.33594-5.77929,15.91414,15.91414,0,0,1-2.22949-8.38868,16.13111,16.13111,0,0,1,2.2002-8.36035,15.412,15.412,0,0,1,6.04248-5.80859,18.71368,18.71368,0,0,1,16.98437-.08789,14.57265,14.57265,0,0,1,5.896,5.71972,17.05863,17.05863,0,0,1,2.1416,8.6543Q702.09131,1322.69343,701.91553,1324.98151Zm-21.41407-10.14942a7.4921,7.4921,0,0,0-2.58154,4.81055h15.54737a7.56906,7.56906,0,0,0-2.58155-4.78125,7.71975,7.71975,0,0,0-5.1626-1.79A7.87942,7.87942,0,0,0,680.50146,1314.83209Z" style="fill:#323334"/><path d="M714.26465,1336.56842a15.57655,15.57655,0,0,1-6.27735-5.77929,16.70815,16.70815,0,0,1,0-16.77832,15.58329,15.58329,0,0,1,6.27735-5.7793,19.413,19.413,0,0,1,9.06445-2.082,17.57218,17.57218,0,0,1,8.71192,2.082,12.35852,12.35852,0,0,1,5.42675,5.95508l-7.09863,3.81347a7.75991,7.75991,0,0,0-7.09863-4.34179,8.03667,8.03667,0,0,0-5.92578,2.34668,9.887,9.887,0,0,0,0,12.79,8.03286,8.03286,0,0,0,5.92578,2.34668,7.67813,7.67813,0,0,0,7.09863-4.34179l7.09863,3.87207a12.60214,12.60214,0,0,1-5.42675,5.86719,17.36676,17.36676,0,0,1-8.71192,2.1123A19.40164,19.40164,0,0,1,714.26465,1336.56842Z" style="fill:#323334"/><path d="M763.28125,1336.65631a9.391,9.391,0,0,1-3.31445,1.4961,16.79094,16.79094,0,0,1-4.13672.499q-5.63086,0-8.71192-2.875-3.08056-2.874-3.08007-8.44824v-12.96582H739.169v-7.04h4.86914v-7.68555h9.15234v7.68555h7.86133v7.04h-7.86133V1327.211a4.3079,4.3079,0,0,0,1.02637,3.08008,3.805,3.805,0,0,0,2.90429,1.085,5.88532,5.88532,0,0,0,3.69629-1.17285Z" style="fill:#323334"/><path d="M767.73926,1315.94635a5.57222,5.57222,0,0,1-1.64258-4.10644,5.35582,5.35582,0,0,1,1.64258-4.07715,6.04819,6.04819,0,0,1,8.09668,0,5.35586,5.35586,0,0,1,1.64258,4.07715,5.57226,5.57226,0,0,1-1.64258,4.10644,5.81011,5.81011,0,0,1-8.09668,0Zm0,21.06153a5.57069,5.57069,0,0,1-1.64258-4.10645,5.35876,5.35876,0,0,1,1.64258-4.07715,6.04819,6.04819,0,0,1,8.09668,0,5.3588,5.3588,0,0,1,1.64258,4.07715,5.57073,5.57073,0,0,1-1.64258,4.10645,5.80765,5.80765,0,0,1-8.09668,0Z" style="fill:#323334"/><path d="M825.14551,1308.17291a14.54327,14.54327,0,0,1,5.66113,5.69043,18.76888,18.76888,0,0,1,0,17.07325,14.53692,14.53692,0,0,1-5.66113,5.69043,16.08324,16.08324,0,0,1-8.00781,2.02441q-6.5127,0-9.915-4.10742v3.63769h-8.74219v-43.53125h9.15234V1309.962q3.46143-3.813,9.50489-3.8125A16.08264,16.08264,0,0,1,825.14551,1308.17291Zm-3.81348,20.59278a10.09934,10.09934,0,0,0,0-12.73145,8.21557,8.21557,0,0,0-11.55762,0,10.09934,10.09934,0,0,0,0,12.73145,8.21557,8.21557,0,0,0,11.55762,0Z" style="fill:#323334"/><path d="M838.78516,1294.65045h9.15234v43.53125h-9.15234Z" style="fill:#323334"/><path d="M880.26367,1309.63971q3.92871,3.49073,3.93067,10.53125v18.01074h-8.56543V1334.251q-2.58252,4.40038-9.62207,4.40039a14.92923,14.92923,0,0,1-6.30664-1.23242,9.39629,9.39629,0,0,1-4.07715-3.40235,8.85105,8.85105,0,0,1-1.40821-4.92871,8.22408,8.22408,0,0,1,3.31446-6.92285q3.31347-2.521,10.2373-2.52246H875.042a5.83519,5.83519,0,0,0-1.81933-4.60547,8.01154,8.01154,0,0,0-5.45606-1.61328,15.91517,15.91517,0,0,0-4.957.792,13.11987,13.11987,0,0,0-4.13574,2.1416l-3.28613-6.3955a19.83669,19.83669,0,0,1,6.18945-2.81543,27.71911,27.71911,0,0,1,7.42187-.99707Q876.332,1306.14948,880.26367,1309.63971ZM872.46,1331.40534a5.93981,5.93981,0,0,0,2.582-3.19727v-3.22656h-6.27734q-5.63232,0-5.63281,3.69629a3.29054,3.29054,0,0,0,1.3789,2.78613,6.20772,6.20772,0,0,0,3.78418,1.02734A7.961,7.961,0,0,0,872.46,1331.40534Z" style="fill:#323334"/><path d="M924.14648,1306.61823v31.56347h-8.68359v-3.75488a12.11557,12.11557,0,0,1-4.34082,3.13867,13.66116,13.66116,0,0,1-5.45605,1.08594q-6.21974,0-9.85645-3.5791-3.63867-3.57715-3.63769-10.61914v-17.835h9.15234v16.48535q0,7.62744,6.39453,7.627a6.87437,6.87437,0,0,0,5.28027-2.14062q1.99365-2.14161,1.99512-6.36621v-15.60547Z" style="fill:#323334"/><path d="M983.22461,1306.61823l-11.44043,31.56347h-8.7998l-7.09864-19.59472-7.334,19.59472H939.752l-11.38183-31.56347h8.624l7.45117,21.35547,7.74414-21.35547h7.74414l7.50977,21.35547,7.68555-21.35547Z" style="fill:#323334"/><path d="M1018.66016,1294.65045v43.53125H1009.919V1334.544q-3.40284,4.10742-9.85645,4.10742a16.38512,16.38512,0,0,1-8.06641-1.99512,14.27566,14.27566,0,0,1-5.66211-5.69043,18.89888,18.89888,0,0,1,0-17.13183,14.28184,14.28184,0,0,1,5.66211-5.69043,16.395,16.395,0,0,1,8.06641-1.99414q6.04248,0,9.44531,3.8125v-15.31153Zm-11.26368,34.11524a10.00243,10.00243,0,0,0,0-12.73145,8.21543,8.21543,0,0,0-11.55761,0,9.99913,9.99913,0,0,0,0,12.73145,8.21543,8.21543,0,0,0,11.55761,0Z" style="fill:#323334"/><path d="M1040.16113,1307.32233a16.43086,16.43086,0,0,1,6.42383-1.17285v8.44726q-1.52637-.11572-2.05371-.11718a8.38813,8.38813,0,0,0-6.16016,2.20019q-2.22948,2.2002-2.22949,6.60059v14.90136h-9.15234v-31.56347h8.74219v4.166A10.18021,10.18021,0,0,1,1040.16113,1307.32233Z" style="fill:#323334"/><path d="M1083.957,1306.61823v31.56347h-8.68359v-3.75488a12.11566,12.11566,0,0,1-4.34082,3.13867,13.66117,13.66117,0,0,1-5.45606,1.08594q-6.21972,0-9.85644-3.5791-3.63867-3.57715-3.6377-10.61914v-17.835h9.15235v16.48535q0,7.62744,6.39453,7.627a6.87438,6.87438,0,0,0,5.28027-2.14062q1.99365-2.14161,1.99512-6.36621v-15.60547Z" style="fill:#323334"/><path d="M1105.89844,1325.8028l-4.40039,4.34179v8.03711h-9.15235v-43.53125h9.15235v24.64063l13.377-12.67285h10.91211l-13.1416,13.376,14.31445,18.1875h-11.08789Z" style="fill:#323334"/></svg>