<svg xmlns="http://www.w3.org/2000/svg" viewBox="0 0 32 32"><title>instellingen</title><path d="M6.38525,24.92748a1.503,1.503,0,0,0,.89153-.292l11.296-8.27713a2.69628,2.69628,0,0,1,1.5984-.51892,2.81766,2.81766,0,0,1,.90727.151,4.77479,4.77479,0,0,0,5.78642-2.352l-4.51581-.00067a1.0316,1.0316,0,0,1-1.03146-1.03183l.00034-2.28546A1.03158,1.03158,0,0,1,22.34974,9.289l4.5158.00067A4.77593,4.77593,0,0,0,22.61312,6.6838q-.22576,0-.456.02118a4.80233,4.80233,0,0,0-4.22835,3.80833,4.754,4.754,0,0,0-.09215,1.14293,2.71685,2.71685,0,0,1-1.105,2.307L5.49174,22.19932a1.51011,1.51011,0,0,0,.89351,2.72816Z" style="fill:#292f32"/></svg>