<svg xmlns="http://www.w3.org/2000/svg" xmlns:xlink="http://www.w3.org/1999/xlink" viewBox="0 0 2880 1441.81995"><defs><clipPath id="a"><rect width="2880" height="1441.81995" style="fill:none"/></clipPath></defs><title>Tekengebied 9</title><g style="clip-path:url(#a)"><path d="M286.16339,1396.50414l87.011,45.316h1.795v-87.762Zm-154.394-80.412,154.394,80.41v-143.907Zm-130.243-67.837,130.243,67.834v-114.925Z" style="fill:#f6cabb"/><path d="M0,1248.80627l1.526-.551L0,1247.46033ZM0-.00073v157.0581l65.048-7.99609V-.00073Z" style="fill:#f6cabb"/><path d="M0,1239.34315v8.117l1.526.795,130.244-47.091v-8.952Zm0-248.787,103-26.356L0,929.86816Z" style="fill:#ef9f8b"/><path d="M0,718.67725l131.77-19.057v-85l-66.722,7.196v-429.095L0,188.00427Zm0-561.62v30.947l65.048-6.808v-32.135Z" style="fill:#ef9f8b"/><polygon points="0 929.868 103 964.2 131.77 956.84 131.77 746.171 0 718.678 0 929.868" style="fill:#ea816c"/><polygon points="374.97 1354.058 374.97 1441.82 376.765 1441.82 965.441 1135.219 965.441 1071.837 374.97 1354.058" style="fill:#f6cabb"/><polygon points="208.246 1173.514 131.769 1201.164 131.769 1316.091 131.771 1316.09 286.163 1252.595 286.163 1204.321 208.246 1234.622 208.246 1173.514" style="fill:#ef9f8b"/><polygon points="208.246 1164.858 131.769 1192.212 131.769 1201.164 208.246 1173.514 208.246 1164.858" style="fill:#ea816c"/><polygon points="131.77 746.171 131.77 956.839 208.246 937.271 208.246 762.128 131.77 746.171" style="fill:#e76c59"/><polygon points="1339.1 359.194 1339.1 388.269 1381.215 387.391 1381.215 359.426 1339.1 359.194" style="fill:#f6cabb"/><path d="M1199.68506,890.894l-234.245,98.971v81.972l234.245-111.96Zm-913.522,505.61h0v-.002" style="fill:#f6cabb"/><polygon points="374.97 1216.072 286.163 1252.595 286.163 1396.504 286.165 1396.503 374.97 1354.058 374.97 1216.072" style="fill:#ef9f8b"/><polygon points="965.44 989.865 374.969 1239.344 374.969 1216.072 374.969 1354.058 965.44 1071.837 965.44 989.865" style="fill:#ef9f8b"/><polygon points="374.97 1169.785 286.163 1204.321 286.163 1252.595 374.97 1216.072 374.97 1169.785" style="fill:#ea816c"/><polygon points="65.048 192.722 65.048 621.816 131.769 614.62 131.769 493.135 131.769 197.561 65.048 192.722" style="fill:#ea816c"/><polygon points="131.77 197.561 131.77 493.134 131.77 352.569 208.246 352.988 208.246 203.109 131.77 197.561" style="fill:#e76c59"/><polygon points="1103.241 357.9 1103.241 393.183 1339.099 388.269 1339.099 359.194 1103.241 357.9" style="fill:#ef9f8b"/><polygon points="989.523 357.276 989.523 395.552 1103.241 393.183 1103.241 357.9 989.523 357.276" style="fill:#ea816c"/><polygon points="208.246 203.108 208.246 352.989 286.163 353.416 286.163 257.622 374.97 262.052 374.97 215.201 208.246 203.108" style="fill:#e35a4b"/><polyline points="863.76 356.585 863.76 398.172 989.524 395.552 989.524 357.276 863.76 356.586" style="fill:#e76c59"/><polygon points="286.163 257.622 286.163 353.417 374.97 353.904 374.97 262.052 286.163 257.622" style="fill:#e24f43"/><polygon points="286.163 1145.343 208.246 1173.514 208.246 1234.622 286.163 1204.321 286.163 1145.343" style="fill:#ea816c"/><polygon points="286.163 1136.989 208.246 1164.858 208.246 1173.514 286.163 1145.343 286.163 1136.989" style="fill:#e76c59"/><polygon points="208.246 762.128 208.246 937.27 374.97 894.61 374.97 881.828 286.163 904.002 286.163 778.385 208.246 762.128" style="fill:#e35a4b"/><polygon points="286.163 778.386 286.163 904.003 374.97 881.828 374.97 796.914 286.163 778.386" style="fill:#e24f43"/><polygon points="374.97 1113.234 286.163 1145.343 286.163 1204.321 374.97 1169.785 374.97 1113.234" style="fill:#e76c59"/><polygon points="374.97 1105.224 286.163 1136.988 286.163 1145.342 374.97 1113.234 374.97 1105.224" style="fill:#e35a4b"/><path d="M1532.83972,149.42981v43.722l77.91712,14.72V167.89075Zm77.91712,106.15393-77.91712,2.58606v12.197l-88.803-9.25-104.937,3.48193V310.1488l42.115,2.101v47.176l229.54212,1.259Z" style="fill:#f6cabb"/><polygon points="1339.1 310.149 1339.1 359.195 1381.215 359.426 1381.215 312.25 1339.1 310.149" style="fill:#ef9f8b"/><polygon points="1339.1 264.599 1144.891 271.044 1103.242 268.023 1103.242 298.383 1339.1 310.149 1339.1 264.599" style="fill:#ef9f8b"/><polygon points="1103.241 298.383 1103.241 357.9 1339.099 359.195 1339.099 310.149 1103.241 298.383" style="fill:#ea816c"/><polygon points="989.523 259.775 989.523 292.71 1103.241 298.383 1103.241 268.024 989.523 259.775" style="fill:#ea816c"/><polygon points="989.523 292.71 989.523 357.277 1103.241 357.901 1103.241 298.383 989.523 292.71" style="fill:#e76c59"/><polygon points="706.839 239.272 706.839 278.608 989.524 292.71 989.524 259.775 706.839 239.272" style="fill:#e76c59"/><polygon points="374.97 215.201 374.97 262.052 706.839 278.608 706.839 239.272 374.97 215.201" style="fill:#e35a4b"/><polygon points="706.839 278.608 706.839 355.724 863.76 356.585 989.524 357.276 989.524 292.71 706.839 278.608" style="fill:#e35a4b"/><polygon points="374.97 262.052 374.97 353.903 706.839 355.724 706.839 278.608 374.97 262.052" style="fill:#e24f43"/><path d="M1659.19238,381.60046l-277.978,5.791v102.832l189.46691-22.284v23.584l88.51111-12.801Zm0,281.217-349.218,132.44605v10.909l-78.08008,30.365v27.114l-32.209,13.247v13.995l459.50708-194.146Z" style="fill:#f6cabb"/><polygon points="1231.895 836.537 1199.685 849.063 1199.685 876.898 1231.895 863.652 1231.895 836.537" style="fill:#ef9f8b"/><polygon points="1381.215 387.391 1339.1 388.269 1339.1 495.176 1381.215 490.223 1381.215 387.391" style="fill:#ef9f8b"/><polygon points="1199.686 876.898 965.441 973.234 965.441 989.864 1199.686 890.893 1199.686 876.898" style="fill:#ef9f8b"/><polygon points="965.44 973.235 374.969 1216.073 374.969 1239.344 965.44 989.865 965.44 973.235" style="fill:#ea816c"/><polygon points="1199.686 849.063 965.441 940.158 965.441 973.235 1199.686 876.898 1199.686 849.063" style="fill:#ea816c"/><polygon points="965.44 940.158 374.969 1169.785 374.969 1216.072 965.44 973.234 965.44 940.158" style="fill:#e76c59"/><polygon points="1339.1 388.269 1103.242 393.183 1103.242 439.401 1231.895 432.285 1231.895 466.245 1309.975 459.739 1309.975 498.602 1339.1 495.176 1339.1 388.269" style="fill:#ea816c"/><polygon points="1231.895 432.284 1103.241 439.4 1103.241 476.966 1231.895 466.245 1231.895 432.284" style="fill:#e76c59"/><polygon points="1103.241 393.183 989.523 395.552 989.523 445.691 1103.241 439.401 1103.241 393.183" style="fill:#e76c59"/><polygon points="1103.241 439.401 989.523 445.691 989.523 486.444 1103.241 476.967 1103.241 439.401" style="fill:#e35a4b"/><polygon points="989.523 395.552 863.759 398.172 863.759 452.647 989.523 445.69 989.523 395.552" style="fill:#e35a4b"/><polygon points="989.523 445.691 863.759 452.647 863.759 496.924 989.523 486.444 989.523 445.691" style="fill:#e24f43"/><polygon points="1309.975 795.264 1231.895 824.877 1231.895 836.537 1309.975 806.173 1309.975 795.264" style="fill:#ef9f8b"/><polygon points="1231.895 824.877 1199.685 837.093 1199.685 849.063 1231.895 836.538 1231.895 824.877" style="fill:#ea816c"/><polygon points="1199.686 837.092 975.332 922.182 965.441 920.118 965.441 940.158 1199.686 849.063 1199.686 837.092" style="fill:#e76c59"/><polygon points="919.367 910.505 706.839 986.522 706.839 993.245 374.97 1113.234 374.97 1169.786 965.44 940.159 965.44 920.119 919.367 910.505" style="fill:#e35a4b"/><polygon points="706.839 986.522 374.97 1105.225 374.97 1113.234 706.839 993.245 706.839 986.522" style="fill:#e24f43"/><polygon points="1309.975 459.739 1231.895 466.246 1231.895 507.785 1309.975 498.602 1309.975 459.739" style="fill:#e76c59"/><polygon points="1231.895 466.245 1103.241 476.966 1103.241 509.838 989.523 522.104 989.523 536.29 1231.895 507.785 1231.895 466.245" style="fill:#e35a4b"/><polygon points="989.523 522.104 863.759 535.668 863.759 551.082 989.523 536.291 989.523 522.104" style="fill:#e24f43"/><polygon points="1103.241 476.967 989.523 486.444 989.523 522.104 1103.241 509.838 1103.241 476.967" style="fill:#e24f43"/><polygon points="989.523 486.443 863.759 496.924 863.759 535.668 989.523 522.103 989.523 486.443" style="fill:#e1473d"/><polygon points="1570.682 467.94 1381.215 490.224 1381.215 518.925 1570.682 491.523 1570.682 467.94" style="fill:#ef9f8b"/><polygon points="1381.215 490.223 1339.1 495.176 1339.1 503.942 1309.975 507.599 1309.975 529.227 1381.215 518.924 1381.215 490.223" style="fill:#ea816c"/><polygon points="1339.1 495.176 1309.975 498.602 1309.975 507.599 1339.1 503.942 1339.1 495.176" style="fill:#e76c59"/><polygon points="560.227 835.57 374.97 881.828 374.97 894.61 585.281 840.797 560.227 835.57" style="fill:#e24f43"/><polygon points="1309.975 507.599 1231.895 517.402 1231.895 540.519 1309.975 529.227 1309.975 507.599" style="fill:#e76c59"/><polygon points="1231.895 517.402 863.76 563.62 863.76 593.76 1231.895 540.519 1231.895 517.402" style="fill:#e35a4b"/><polygon points="374.97 796.915 374.97 881.828 560.227 835.57 374.97 796.915" style="fill:#e1473d"/><polygon points="1309.975 498.602 1231.895 507.785 1231.895 517.402 1309.975 507.599 1309.975 498.602" style="fill:#e35a4b"/><polygon points="1231.895 507.785 989.523 536.291 989.523 541.789 863.76 557.057 863.76 563.62 1231.895 517.402 1231.895 507.785" style="fill:#e24f43"/><polygon points="989.523 536.291 863.759 551.082 863.759 557.057 989.523 541.79 989.523 536.291" style="fill:#e1473d"/><polygon points="1339.099 -0.001 1339.099 103.527 1532.839 149.43 1532.839 -0.001 1339.099 -0.001" style="fill:#f6cabb"/><polygon points="902.141 -0.001 1339.099 103.527 1339.099 -0.001 902.141 -0.001" style="fill:#ef9f8b"/><path d="M1339.09973,103.52734v53.02l193.74011,36.604v-43.722Zm193.74011,154.642-88.8031,2.947,88.8031,9.25Z" style="fill:#ef9f8b"/><polygon points="808.565 -0.001 808.565 28.307 1103.241 89.028 1103.241 111.986 1339.099 156.547 1339.099 103.527 902.14 -0.001 808.565 -0.001" style="fill:#ea816c"/><polygon points="808.565 28.307 808.565 103.391 968.925 86.61 1103.241 111.986 1103.241 89.028 808.565 28.307" style="fill:#e76c59"/><polygon points="65.048 -0.001 65.048 149.061 131.769 140.86 131.769 57.44 208.246 67.621 208.246 -0.001 65.048 -0.001" style="fill:#ea816c"/><polygon points="131.77 140.86 65.049 149.061 65.049 181.197 131.77 174.215 131.77 140.86" style="fill:#e76c59"/><polygon points="131.77 57.44 131.77 140.86 208.246 131.459 208.246 67.622 131.77 57.44" style="fill:#e76c59"/><polygon points="208.246 131.459 131.769 140.86 131.769 174.215 208.246 166.211 208.246 131.459" style="fill:#e35a4b"/><polygon points="208.247 -0.001 208.247 67.621 374.97 89.819 374.97 -0.001 208.247 -0.001" style="fill:#e76c59"/><polygon points="208.246 67.622 208.246 131.46 374.97 110.966 374.97 148.765 374.97 89.819 208.246 67.622" style="fill:#e35a4b"/><polygon points="374.97 110.965 208.246 131.459 208.246 166.211 374.97 148.765 374.97 110.965" style="fill:#e24f43"/><polygon points="706.838 -0.001 706.838 7.345 808.565 28.307 808.565 -0.001 706.838 -0.001" style="fill:#e76c59"/><polygon points="671.19 -0.001 706.839 7.345 706.839 -0.001 671.19 -0.001" style="fill:#e35a4b"/><polygon points="706.839 7.345 706.839 114.036 808.566 103.391 808.566 28.307 706.839 7.345" style="fill:#e35a4b"/><polygon points="374.97 -0.001 374.97 89.819 622.87 122.823 706.839 114.036 706.839 7.345 671.19 -0.001 374.97 -0.001" style="fill:#e24f43"/><polygon points="374.97 89.819 374.97 148.765 622.869 122.823 374.97 89.819" style="fill:#e1473d"/><polygon points="208.246 636.633 131.769 645.917 131.769 699.621 208.246 688.561 208.246 645.917 208.246 636.633" style="fill:#e76c59"/><polygon points="208.246 606.371 131.769 614.62 131.769 645.917 208.246 636.633 208.246 606.371" style="fill:#e35a4b"/><polygon points="131.77 352.57 131.77 493.135 208.246 488.905 208.246 352.989 131.77 352.57" style="fill:#e35a4b"/><polygon points="208.246 488.905 131.769 493.135 131.769 614.62 208.246 606.371 208.246 488.905" style="fill:#e24f43"/><polygon points="208.246 352.989 208.246 488.905 286.163 484.595 286.163 353.417 208.246 352.989" style="fill:#e24f43"/><polygon points="286.163 484.595 208.246 488.905 208.246 606.371 208.246 551.552 286.163 545.058 286.163 484.595" style="fill:#e1473d"/><polygon points="706.839 355.725 706.839 401.442 863.76 398.172 863.76 356.585 706.839 355.725" style="fill:#e35a4b"/><polygon points="374.97 353.904 374.97 479.683 374.97 408.356 706.839 401.442 706.839 355.725 374.97 353.904" style="fill:#e24f43"/><polygon points="286.163 353.417 286.163 484.595 374.97 479.683 374.97 353.904 286.163 353.417" style="fill:#e1473d"/><polygon points="374.97 479.683 286.163 484.595 286.163 545.058 374.97 537.657 374.97 479.683" style="fill:#e03f38"/><polygon points="286.163 636.134 208.246 645.916 208.246 688.56 286.163 677.292 286.163 636.134" style="fill:#e35a4b"/><polygon points="374.97 624.985 286.163 636.134 286.163 677.292 374.97 664.448 374.97 624.985" style="fill:#e24f43"/><polygon points="286.163 627.174 208.246 636.633 208.246 645.917 286.163 636.134 286.163 627.174" style="fill:#e24f43"/><polygon points="374.97 616.393 286.163 627.174 286.163 636.134 374.97 624.985 374.97 616.393" style="fill:#e1473d"/><polygon points="286.163 597.967 208.246 606.371 208.246 636.633 286.163 627.174 286.163 597.967" style="fill:#e1473d"/><polygon points="374.97 588.388 286.163 597.967 286.163 627.174 374.97 616.393 374.97 588.388" style="fill:#e03f38"/><polygon points="286.163 545.058 208.246 551.551 208.246 606.371 286.163 597.967 286.163 545.058" style="fill:#e03f38"/><polygon points="374.97 537.657 286.163 545.058 286.163 597.967 374.97 588.388 374.97 537.657" style="fill:#e03c36"/><polygon points="706.838 355.725 863.759 356.585 706.838 355.724 706.838 355.725" style="fill:#e24f43"/><polygon points="374.97 353.904 374.97 353.904 706.839 355.725 706.839 355.724 374.97 353.904" style="fill:#e1473d"/><polygon points="863.76 398.172 706.839 401.442 706.839 461.326 863.76 452.647 863.76 398.172" style="fill:#e24f43"/><polygon points="706.839 401.442 374.97 408.356 374.97 479.683 706.839 461.326 706.839 401.442" style="fill:#e1473d"/><polygon points="863.76 452.647 706.839 461.326 706.839 510.001 863.76 496.924 863.76 452.647" style="fill:#e1473d"/><polygon points="706.839 461.326 374.97 479.682 374.97 537.657 706.839 510.001 706.839 461.326" style="fill:#e03f38"/><polygon points="863.76 535.668 706.839 552.593 706.839 569.537 863.76 551.081 863.76 535.668" style="fill:#e1473d"/><polygon points="706.839 552.594 374.97 588.389 374.97 608.57 706.839 569.538 706.839 552.594" style="fill:#e03f38"/><polygon points="863.76 496.924 706.839 510.001 706.839 552.594 863.76 535.668 863.76 496.924" style="fill:#e03f38"/><polygon points="706.839 510.001 374.97 537.657 374.97 588.388 706.839 552.594 706.839 510.001" style="fill:#e03c36"/><polygon points="863.76 563.62 706.839 583.32 706.839 616.454 863.76 593.76 863.76 563.62" style="fill:#e24f43"/><polygon points="706.839 583.32 374.97 624.985 374.97 664.448 706.839 616.453 706.839 583.32" style="fill:#e1473d"/><polygon points="863.76 557.057 706.839 576.106 706.839 583.32 863.76 563.62 863.76 557.057" style="fill:#e1473d"/><polygon points="706.839 576.106 374.97 616.393 374.97 624.985 706.839 583.32 706.839 576.106" style="fill:#e03f38"/><polygon points="863.76 551.082 706.839 569.538 706.839 576.107 863.76 557.057 863.76 551.082" style="fill:#e03f38"/><polygon points="706.839 569.537 374.97 608.57 374.97 616.393 706.839 576.107 706.839 569.537" style="fill:#e03c36"/><polygon points="0 990.556 0 1239.343 131.77 1192.212 131.77 973.789 103 964.2 0 990.556" style="fill:#ea816c"/><polygon points="131.77 956.839 102.999 964.2 131.77 973.789 131.77 956.839" style="fill:#e76c59"/><polygon points="131.77 973.79 131.77 1192.213 208.246 1164.858 208.246 999.282 131.77 973.79" style="fill:#e76c59"/><polygon points="208.246 937.271 131.769 956.84 131.769 973.79 208.246 999.282 208.246 937.271" style="fill:#e35a4b"/><polygon points="208.246 999.282 208.246 1164.858 286.163 1136.989 286.163 1084.458 374.97 1054.856 208.246 999.282" style="fill:#e35a4b"/><polygon points="374.97 894.61 208.246 937.27 208.246 999.281 374.97 1054.855 374.97 894.61" style="fill:#e24f43"/><polygon points="374.97 1054.855 286.163 1084.458 286.163 1136.989 374.97 1105.224 374.97 1054.855" style="fill:#e24f43"/><polygon points="706.839 866.16 706.839 944.232 850.887 896.216 706.839 866.16" style="fill:#e35a4b"/><polygon points="643.259 852.895 374.97 925.556 374.97 1054.856 706.839 944.233 706.839 866.161 643.259 852.895" style="fill:#e24f43"/><polygon points="850.887 896.216 706.839 944.232 706.839 986.522 919.367 910.504 850.887 896.216" style="fill:#e24f43"/><polygon points="706.839 944.232 374.97 1054.855 374.97 1105.224 706.839 986.522 706.839 944.232" style="fill:#e1473d"/><polygon points="585.28 840.797 374.969 894.61 374.969 925.556 643.259 852.895 585.28 840.797" style="fill:#e1473d"/><polygon points="1610.757 207.872 1610.757 255.584 1825.56 248.455 1610.757 207.872" style="fill:#f6cabb"/><polygon points="0 188.004 0 188.004 65.048 192.722 65.048 181.197 0 188.004" style="fill:#ea816c"/><polygon points="65.048 181.197 65.048 181.197 65.048 192.722 131.769 197.562 131.769 190.928 65.048 185.897 65.048 181.197" style="fill:#e76c59"/><polygon points="131.77 190.928 131.77 197.562 208.246 203.109 208.246 196.695 131.77 190.928" style="fill:#e35a4b"/><polygon points="208.246 196.694 208.246 203.109 374.97 215.201 374.97 209.266 208.246 196.694" style="fill:#e24f43"/><path d="M1532.8396,193.15149v65.01794l77.917-2.58593V207.87244Zm-193.74,57.03393v14.41407l104.938-3.483Z" style="fill:#ef9f8b"/><polygon points="1103.241 225.618 1103.241 268.024 1144.89 271.045 1339.099 264.599 1339.099 250.186 1103.241 225.618" style="fill:#ea816c"/><polygon points="989.523 213.772 989.523 259.775 1103.241 268.023 1103.241 225.618 989.523 213.772" style="fill:#e76c59"/><polygon points="808.565 194.923 808.565 241.96 706.838 234.289 706.838 239.272 989.523 259.775 989.523 213.772 808.565 194.923" style="fill:#e35a4b"/><polygon points="374.97 209.266 374.97 215.201 706.839 239.272 706.839 234.289 374.97 209.266" style="fill:#e24f43"/><polygon points="1339.1 156.547 1339.1 250.185 1444.038 261.116 1532.84 258.169 1532.84 193.151 1339.1 156.547" style="fill:#ea816c"/><polygon points="1103.241 111.986 1103.241 225.617 1339.099 250.185 1339.099 156.547 1103.241 111.986" style="fill:#e76c59"/><polygon points="968.926 86.61 808.566 103.391 808.566 147.547 989.524 171.638 989.524 213.772 1103.241 225.618 1103.241 111.986 968.926 86.61" style="fill:#e35a4b"/><polygon points="808.565 147.546 808.565 194.922 989.523 213.772 989.523 171.638 808.565 147.546" style="fill:#e24f43"/><polygon points="131.77 174.215 65.049 181.197 65.049 185.897 131.77 190.928 131.77 174.215" style="fill:#e35a4b"/><polygon points="208.246 166.212 131.769 174.215 131.769 190.928 208.246 196.695 208.246 166.212" style="fill:#e24f43"/><polygon points="374.97 148.765 208.246 166.212 208.246 196.695 374.97 209.266 374.97 148.765" style="fill:#e1473d"/><polygon points="706.839 184.327 706.839 234.289 808.566 241.96 808.566 194.923 706.839 184.327" style="fill:#e24f43"/><polygon points="374.97 148.765 374.97 148.765 374.97 209.266 706.839 234.289 706.839 184.327 374.97 149.758 374.97 148.765" style="fill:#e1473d"/><polygon points="808.565 103.391 706.838 114.036 706.838 134.003 808.565 147.547 808.565 103.391" style="fill:#e24f43"/><polygon points="706.839 114.036 622.869 122.823 706.839 134.003 706.839 114.036" style="fill:#e1473d"/><polygon points="706.839 134.003 706.839 184.327 808.566 194.923 808.566 147.547 706.839 134.003" style="fill:#e1473d"/><polygon points="622.869 122.823 374.97 148.764 374.97 149.757 706.839 184.326 706.839 134.002 622.869 122.823" style="fill:#e03f38"/><polygon points="1801.896 458.085 1659.192 478.723 1659.192 662.818 2173.026 467.94 1801.896 458.085" style="fill:#f6cabb"/><polygon points="0 718.677 0 718.677 131.77 746.17 131.77 699.621 0 718.677" style="fill:#ea816c"/><polygon points="0 718.677 131.77 746.171 131.77 746.17 0 718.677" style="fill:#e76c59"/><polygon points="131.77 699.62 131.77 699.62 131.77 746.17 208.246 762.127 208.246 733.569 131.77 746.17 131.77 699.62" style="fill:#e76c59"/><polygon points="131.77 746.17 131.77 746.171 208.246 762.128 208.246 762.127 131.77 746.17" style="fill:#e35a4b"/><polygon points="286.163 720.732 208.246 733.569 208.246 762.127 286.163 778.384 286.163 720.732" style="fill:#e35a4b"/><polygon points="208.246 762.127 208.246 762.128 286.163 778.386 286.163 778.384 208.246 762.127" style="fill:#e24f43"/><polygon points="374.97 706.101 286.163 720.732 286.163 778.384 374.97 796.914 374.97 796.916 374.97 706.101" style="fill:#e24f43"/><polygon points="286.163 778.384 286.163 778.386 374.97 796.915 374.97 796.913 286.163 778.384" style="fill:#e1473d"/><polygon points="1659.192 478.723 1570.681 491.523 1570.681 601.718 1309.974 672.327 1309.974 795.264 1659.192 662.818 1659.192 478.723" style="fill:#ef9f8b"/><polygon points="1309.975 672.326 1301.194 674.704 1301.194 773.933 1231.895 798.72 1231.895 824.876 1309.975 795.264 1309.975 672.326" style="fill:#ea816c"/><polygon points="1231.895 798.72 1199.685 810.24 1199.685 837.092 1231.895 824.876 1231.895 798.72" style="fill:#e76c59"/><polygon points="1199.686 810.24 965.441 894.025 965.441 920.118 975.332 922.181 1199.686 837.092 1199.686 810.24" style="fill:#e35a4b"/><polygon points="965.44 894.025 919.367 910.504 965.44 920.118 965.44 894.025" style="fill:#e24f43"/><polygon points="1570.682 491.523 1381.215 518.924 1381.215 630.57 1309.975 648.359 1309.975 672.326 1570.682 601.718 1570.682 491.523" style="fill:#ea816c"/><polygon points="1381.215 518.924 1309.975 529.227 1309.975 648.359 1381.215 630.57 1381.215 518.924" style="fill:#e76c59"/><polygon points="1309.975 648.359 1231.895 667.855 1231.895 675.344 1301.194 657.612 1301.194 674.704 1309.975 672.326 1309.975 648.359" style="fill:#e76c59"/><polygon points="1231.895 667.856 965.44 734.389 965.44 743.524 1231.895 675.345 1231.895 667.856" style="fill:#e35a4b"/><polygon points="965.44 734.389 706.838 798.961 706.838 809.694 965.44 743.524 965.44 734.389" style="fill:#e24f43"/><polygon points="706.839 798.96 560.227 835.569 585.28 840.797 706.839 809.693 706.839 798.96" style="fill:#e1473d"/><polygon points="1309.975 529.227 1231.895 540.519 1231.895 667.855 1309.975 648.359 1309.975 529.227" style="fill:#e35a4b"/><polygon points="1231.895 540.519 863.76 593.759 863.76 600.185 965.44 585.066 965.44 734.389 1231.895 667.855 1231.895 540.519" style="fill:#e24f43"/><polygon points="965.44 585.066 863.759 600.185 863.759 625.569 706.838 651.423 706.838 798.961 965.44 734.389 965.44 585.066" style="fill:#e1473d"/><polygon points="706.839 651.423 374.97 706.101 374.97 796.916 560.227 835.57 706.839 798.961 706.839 651.423" style="fill:#e03f38"/><polygon points="208.246 688.56 131.769 699.62 131.769 746.17 208.246 733.569 208.246 688.56" style="fill:#e35a4b"/><polygon points="286.163 677.292 208.246 688.561 208.246 733.57 286.163 720.732 286.163 677.292" style="fill:#e24f43"/><polygon points="374.97 664.448 286.163 677.291 286.163 720.732 374.97 706.1 374.97 664.448" style="fill:#e1473d"/><polygon points="863.76 593.759 706.839 616.453 706.839 623.516 863.76 600.184 863.76 593.759" style="fill:#e1473d"/><polygon points="706.839 616.453 374.97 664.448 374.97 672.86 706.839 623.516 706.839 616.453" style="fill:#e03f38"/><polygon points="863.76 600.185 706.839 623.517 706.839 651.423 863.76 625.569 863.76 600.185" style="fill:#e03f38"/><polygon points="706.839 623.516 374.97 672.86 374.97 706.1 706.839 651.422 706.839 623.516" style="fill:#e03c36"/><polygon points="1301.193 674.704 1231.894 693.472 1231.894 798.72 1301.193 773.933 1301.193 674.704" style="fill:#e76c59"/><polygon points="1231.895 693.473 965.44 765.638 965.44 858.032 1199.685 779.951 1199.685 810.241 1231.895 798.72 1231.895 693.473" style="fill:#e35a4b"/><polygon points="965.44 765.637 706.838 835.674 706.838 866.16 850.886 896.216 965.44 858.031 965.44 765.637" style="fill:#e24f43"/><polygon points="706.839 835.675 643.259 852.895 706.839 866.16 706.839 835.675" style="fill:#e1473d"/><polygon points="1199.686 779.95 965.441 858.032 965.441 894.025 1199.686 810.24 1199.686 779.95" style="fill:#e24f43"/><polygon points="965.44 858.032 850.886 896.216 919.367 910.505 965.44 894.026 965.44 858.032" style="fill:#e1473d"/><polygon points="1301.193 657.613 1231.894 675.345 1231.894 693.473 1301.193 674.704 1301.193 657.613" style="fill:#e35a4b"/><polygon points="1231.895 675.344 965.44 743.523 965.44 765.637 1231.895 693.472 1231.895 675.344" style="fill:#e24f43"/><polygon points="965.44 743.524 706.838 809.694 706.838 835.675 965.44 765.638 965.44 743.524" style="fill:#e1473d"/><polygon points="706.839 809.693 585.28 840.797 643.259 852.894 706.839 835.675 706.839 809.693" style="fill:#e03f38"/><path d="M434.06738,160.29724h15.582a21.89975,21.89975,0,0,1,9.87305,2.13086,15.9733,15.9733,0,0,1,6.66406,6.00293,18.28812,18.28812,0,0,1,0,18.03223,15.95822,15.95822,0,0,1-6.66406,6.002,21.9,21.9,0,0,1-9.87305,2.13184h-15.582Zm15.18946,27.7832a11.52877,11.52877,0,0,0,8.208-2.86718,11.3782,11.3782,0,0,0,0-15.53223,11.52877,11.52877,0,0,0-8.208-2.86719h-7.252v21.2666Z" style="fill:#fff"/><path d="M499.5791,183.57166H479.63574a6.20782,6.20782,0,0,0,2.54785,3.87109,8.43534,8.43534,0,0,0,4.99805,1.4209,10.10092,10.10092,0,0,0,3.65039-.61231,8.849,8.849,0,0,0,2.96485-1.93554l4.06738,4.41015q-3.7251,4.2627-10.87793,4.2627a17.19994,17.19994,0,0,1-7.88965-1.73926,12.75269,12.75269,0,0,1-5.292-4.82617,13.30037,13.30037,0,0,1-1.86133-7.00684,13.47564,13.47564,0,0,1,1.83691-6.98242,12.88214,12.88214,0,0,1,5.04688-4.85156,15.62655,15.62655,0,0,1,14.18555-.07324,12.15839,12.15839,0,0,1,4.9248,4.77734,14.24747,14.24747,0,0,1,1.78809,7.22754Q499.72559,181.66052,499.5791,183.57166Zm-17.88476-8.47657a6.25084,6.25084,0,0,0-2.15625,4.01758h12.98535a6.329,6.329,0,0,0-2.15625-3.99316,6.44676,6.44676,0,0,0-4.3125-1.49414A6.578,6.578,0,0,0,481.69434,175.09509Z" style="fill:#fff"/><path d="M507.125,194.181a16.73231,16.73231,0,0,1-4.99707-2.03418l2.54785-5.48828a15.97879,15.97879,0,0,0,4.2627,1.83789,17.86717,17.86717,0,0,0,4.90039.71094q4.8501,0,4.85058-2.40137a1.70062,1.70062,0,0,0-1.32324-1.61719,19.67806,19.67806,0,0,0-4.06641-.833,39.13209,39.13209,0,0,1-5.34179-1.12695,8.2808,8.2808,0,0,1-3.65039-2.2539,6.41154,6.41154,0,0,1-1.543-4.60547,7.21333,7.21333,0,0,1,1.44531-4.43457,9.30139,9.30139,0,0,1,4.21387-3.01368,17.994,17.994,0,0,1,6.542-1.07812,25.693,25.693,0,0,1,5.56152.6123,15.605,15.605,0,0,1,4.58106,1.69043l-2.54785,5.43946a15.21556,15.21556,0,0,0-7.59473-1.96,7.73346,7.73346,0,0,0-3.67578.68554,2.01807,2.01807,0,0,0-1.22461,1.76367,1.75159,1.75159,0,0,0,1.32324,1.71583,23.45294,23.45294,0,0,0,4.21387.93066,45.13521,45.13521,0,0,1,5.292,1.15137,7.95656,7.95656,0,0,1,3.57715,2.22949,6.33111,6.33111,0,0,1,1.51855,4.50781,6.965,6.965,0,0,1-1.46972,4.36133,9.38327,9.38327,0,0,1-4.28711,2.96484,19.1113,19.1113,0,0,1-6.68848,1.05274A25.65328,25.65328,0,0,1,507.125,194.181Z" style="fill:#fff"/><path d="M530.9873,163.33533a4.14926,4.14926,0,0,1,0-6.07617,4.84934,4.84934,0,0,1,3.42969-1.22559,4.97154,4.97154,0,0,1,3.43067,1.17676,3.76994,3.76994,0,0,1,1.32226,2.93945,4.16159,4.16159,0,0,1-1.32226,3.16113,4.79381,4.79381,0,0,1-3.43067,1.249A4.84878,4.84878,0,0,1,530.9873,163.33533Zm-.3916,4.89941h7.64356v26.36231H530.5957Z" style="fill:#fff"/><path d="M572.39258,168.23474v21.95215q0,7.251-3.77246,10.78027-3.77345,3.52735-11.02539,3.52832a27.59416,27.59416,0,0,1-7.252-.93164,15.85349,15.85349,0,0,1-5.68359-2.69433l3.03809-5.48828a12.49646,12.49646,0,0,0,4.21386,2.18066,16.75942,16.75942,0,0,0,5.09571.80859q3.96972,0,5.85546-1.78906,1.88526-1.78857,1.88672-5.41406v-1.12695q-2.98974,3.2827-8.33007,3.28222a13.988,13.988,0,0,1-6.63965-1.5918,12.132,12.132,0,0,1-4.77735-4.48339,13.472,13.472,0,0,1,0-13.32813,12.1321,12.1321,0,0,1,4.77735-4.4834,13.98881,13.98881,0,0,1,6.63965-1.59277q5.73339,0,8.72167,3.77246v-3.38086Zm-9.48145,17.02734a6.62376,6.62376,0,0,0,0-9.35839,7.04114,7.04114,0,0,0-4.97363-1.78907,7.12884,7.12884,0,0,0-4.99805,1.78907,6.56552,6.56552,0,0,0,0,9.35839,7.12444,7.12444,0,0,0,4.99805,1.78907A7.03682,7.03682,0,0,0,562.91113,185.26208Z" style="fill:#fff"/><path d="M603.33594,170.78259q3.01318,2.94141,3.01269,8.72266v15.0918h-7.64355V180.681a6.87776,6.87776,0,0,0-1.37207-4.67969,5.03481,5.03481,0,0,0-3.96875-1.543,6.08351,6.08351,0,0,0-4.60645,1.78809,7.40673,7.40673,0,0,0-1.71484,5.31641v13.03418h-7.64356V168.23474h7.30079v3.08692a10.15293,10.15293,0,0,1,3.77246-2.57227,13.16294,13.16294,0,0,1,4.94922-.90625A10.85112,10.85112,0,0,1,603.33594,170.78259Z" style="fill:#fff"/><path d="M630.67676,193.24939a13.02811,13.02811,0,0,1-5.24317-4.82617,13.29019,13.29019,0,0,1,5.24317-18.84082,16.21135,16.21135,0,0,1,7.57031-1.73926,14.67969,14.67969,0,0,1,7.27734,1.73926,10.327,10.327,0,0,1,4.53223,4.97363l-5.92871,3.18457a6.483,6.483,0,0,0-5.92969-3.626,6.7135,6.7135,0,0,0-4.94922,1.96,8.25809,8.25809,0,0,0,0,10.68262,6.70968,6.70968,0,0,0,4.94922,1.96,6.41416,6.41416,0,0,0,5.92969-3.626l5.92871,3.23339a10.528,10.528,0,0,1-4.53223,4.9004,14.51322,14.51322,0,0,1-7.27734,1.76367A16.19942,16.19942,0,0,1,630.67676,193.24939Z" style="fill:#fff"/><path d="M678.10938,170.78259q3.01317,2.94141,3.01269,8.72266v15.0918h-7.64355V180.681a6.87776,6.87776,0,0,0-1.37207-4.67969,5.03482,5.03482,0,0,0-3.96875-1.543,6.08349,6.08349,0,0,0-4.60645,1.78809,7.40673,7.40673,0,0,0-1.71484,5.31641v13.03418h-7.64356v-36.3584h7.64356v12.74023a10.17907,10.17907,0,0,1,3.6748-2.32715,13.29618,13.29618,0,0,1,4.7041-.80859A10.85114,10.85114,0,0,1,678.10938,170.78259Z" style="fill:#fff"/><path d="M707.9248,170.75818q3.28125,2.91649,3.28223,8.7959v15.043h-7.15332v-3.28321q-2.15772,3.6753-8.03613,3.67481a12.47632,12.47632,0,0,1-5.26758-1.02832,7.857,7.857,0,0,1-3.40527-2.8418,7.39708,7.39708,0,0,1-1.17578-4.11621,6.86871,6.86871,0,0,1,2.76757-5.78223q2.76857-2.10644,8.55078-2.10742h6.07618a4.87274,4.87274,0,0,0-1.51856-3.8457,6.69327,6.69327,0,0,0-4.55762-1.34766,13.32357,13.32357,0,0,0-4.14062.66113,10.94979,10.94979,0,0,0-3.4541,1.78907l-2.74414-5.3418a16.58093,16.58093,0,0,1,5.16992-2.35156,23.13709,23.13709,0,0,1,6.19824-.833Q704.64111,167.84314,707.9248,170.75818Zm-6.51757,18.17969a4.96358,4.96358,0,0,0,2.15625-2.6709v-2.69531h-5.24317q-4.70361,0-4.7041,3.08691a2.74917,2.74917,0,0,0,1.15137,2.32812,5.19027,5.19027,0,0,0,3.16113.85743A6.65641,6.65641,0,0,0,701.40723,188.93787Z" style="fill:#fff"/><path d="M718.01855,158.23865h7.64356v36.3584h-7.64356Z" style="fill:#fff"/><path d="M732.62012,158.23865h7.64355v36.3584h-7.64355Z" style="fill:#fff"/><path d="M772.94727,183.57166H753.00391a6.20774,6.20774,0,0,0,2.54785,3.87109,8.43531,8.43531,0,0,0,4.998,1.4209,10.101,10.101,0,0,0,3.6504-.61231,8.849,8.849,0,0,0,2.96484-1.93554l4.06738,4.41015q-3.7251,4.2627-10.87793,4.2627a17.2,17.2,0,0,1-7.88965-1.73926,12.75269,12.75269,0,0,1-5.292-4.82617,13.30037,13.30037,0,0,1-1.86133-7.00684,13.47564,13.47564,0,0,1,1.83692-6.98242,12.88205,12.88205,0,0,1,5.04687-4.85156,15.62655,15.62655,0,0,1,14.18555-.07324,12.15839,12.15839,0,0,1,4.9248,4.77734,14.24737,14.24737,0,0,1,1.78809,7.22754Q773.09375,181.66052,772.94727,183.57166Zm-17.88477-8.47657a6.25084,6.25084,0,0,0-2.15625,4.01758H765.8916a6.32891,6.32891,0,0,0-2.15625-3.99316,6.44676,6.44676,0,0,0-4.3125-1.49414A6.578,6.578,0,0,0,755.0625,175.09509Z" style="fill:#fff"/><path d="M801.97949,170.78259q3.01318,2.94141,3.0127,8.72266v15.0918h-7.64356V180.681a6.87776,6.87776,0,0,0-1.37207-4.67969,5.03481,5.03481,0,0,0-3.96875-1.543,6.08348,6.08348,0,0,0-4.60644,1.78809,7.40669,7.40669,0,0,0-1.71485,5.31641v13.03418H778.043V168.23474h7.30078v3.08692a10.153,10.153,0,0,1,3.77246-2.57227,13.16294,13.16294,0,0,1,4.94922-.90625A10.8511,10.8511,0,0,1,801.97949,170.78259Z" style="fill:#fff"/><path d="M839.24316,168.23474v21.95215q0,7.251-3.77246,10.78027-3.77343,3.52735-11.02539,3.52832a27.594,27.594,0,0,1-7.25195-.93164,15.85349,15.85349,0,0,1-5.68359-2.69433l3.03808-5.48828a12.49661,12.49661,0,0,0,4.21387,2.18066,16.75931,16.75931,0,0,0,5.0957.80859q3.96973,0,5.85547-1.78906,1.88526-1.78857,1.88672-5.41406v-1.12695q-2.98974,3.2827-8.33008,3.28222a13.988,13.988,0,0,1-6.63965-1.5918,12.132,12.132,0,0,1-4.77734-4.48339,13.472,13.472,0,0,1,0-13.32813,12.13207,12.13207,0,0,1,4.77734-4.4834,13.98881,13.98881,0,0,1,6.63965-1.59277q5.7334,0,8.72168,3.77246v-3.38086Zm-9.48144,17.02734a6.62376,6.62376,0,0,0,0-9.35839,7.04116,7.04116,0,0,0-4.97363-1.78907,7.12884,7.12884,0,0,0-4.99805,1.78907,6.56552,6.56552,0,0,0,0,9.35839,7.12444,7.12444,0,0,0,4.99805,1.78907A7.03684,7.03684,0,0,0,829.76172,185.26208Z" style="fill:#fff"/><path d="M871.877,183.57166H851.93359a6.2078,6.2078,0,0,0,2.54786,3.87109,8.43529,8.43529,0,0,0,4.998,1.4209,10.10092,10.10092,0,0,0,3.65039-.61231,8.84891,8.84891,0,0,0,2.96485-1.93554l4.06738,4.41015q-3.7251,4.2627-10.87793,4.2627a17.19994,17.19994,0,0,1-7.88965-1.73926,12.75269,12.75269,0,0,1-5.292-4.82617,13.30037,13.30037,0,0,1-1.86133-7.00684,13.47573,13.47573,0,0,1,1.83691-6.98242,12.88214,12.88214,0,0,1,5.04688-4.85156,15.62655,15.62655,0,0,1,14.18555-.07324,12.15839,12.15839,0,0,1,4.9248,4.77734,14.24747,14.24747,0,0,1,1.78809,7.22754Q872.02344,181.66052,871.877,183.57166Zm-17.88476-8.47657a6.25084,6.25084,0,0,0-2.15625,4.01758h12.98535a6.329,6.329,0,0,0-2.15625-3.99316,6.44676,6.44676,0,0,0-4.3125-1.49414A6.578,6.578,0,0,0,853.99219,175.09509Z" style="fill:#fff"/><path d="M879.47168,194.181a16.73231,16.73231,0,0,1-4.99707-2.03418l2.54785-5.48828a15.97879,15.97879,0,0,0,4.2627,1.83789,17.86717,17.86717,0,0,0,4.90039.71094q4.8501,0,4.85058-2.40137a1.70062,1.70062,0,0,0-1.32324-1.61719,19.67821,19.67821,0,0,0-4.06641-.833,39.13209,39.13209,0,0,1-5.34179-1.12695,8.2808,8.2808,0,0,1-3.65039-2.2539,6.41154,6.41154,0,0,1-1.543-4.60547,7.21333,7.21333,0,0,1,1.44531-4.43457,9.30139,9.30139,0,0,1,4.21387-3.01368,17.994,17.994,0,0,1,6.542-1.07812,25.693,25.693,0,0,1,5.56152.6123,15.605,15.605,0,0,1,4.58106,1.69043l-2.54785,5.43946a15.21556,15.21556,0,0,0-7.59473-1.96,7.73344,7.73344,0,0,0-3.67578.68554,2.01807,2.01807,0,0,0-1.22461,1.76367,1.75159,1.75159,0,0,0,1.32324,1.71583,23.45294,23.45294,0,0,0,4.21387.93066,45.13521,45.13521,0,0,1,5.292,1.15137,7.95656,7.95656,0,0,1,3.57715,2.22949,6.33111,6.33111,0,0,1,1.51855,4.50781,6.965,6.965,0,0,1-1.46972,4.36133,9.38327,9.38327,0,0,1-4.28711,2.96484,19.1113,19.1113,0,0,1-6.68848,1.05274A25.65328,25.65328,0,0,1,879.47168,194.181Z" style="fill:#fff"/><path d="M2850.5332,1422.18982a2.2226,2.2226,0,0,0,1.12305,2.01172,2.488,2.488,0,0,0,1.21094.293,2.72068,2.72068,0,0,0,2.14843-1.04981q.88917-1.05029,1.25977-4.26269a3.26125,3.26125,0,0,1-1.45019,1.30371,4.60706,4.60706,0,0,1-1.86036.376,4.16675,4.16675,0,0,1-3.19824-1.25878,4.55211,4.55211,0,0,1-1.17676-3.23829,5.18512,5.18512,0,0,1,1.16211-3.34668,4.13977,4.13977,0,0,1,3.42774-1.44336,4.21443,4.21443,0,0,1,4.21875,2.752,9.6957,9.6957,0,0,1,.64453,3.78613,12.45893,12.45893,0,0,1-.77149,4.54785q-1.27879,3.29883-4.33593,3.29883a4.2004,4.2004,0,0,1-3.11524-1.07422,3.671,3.671,0,0,1-1.06445-2.69531Zm4.5752-3.55859a2.90827,2.90827,0,0,0,.86426-2.40332,3.07053,3.07053,0,0,0-.77637-2.2959,2.7178,2.7178,0,0,0-1.97754-.75586,2.58394,2.58394,0,0,0-2.0459.86328,3.36962,3.36962,0,0,0-.75683,2.30566,3.3035,3.3035,0,0,0,.66406,2.16895,2.59458,2.59458,0,0,0,2.11914.80469A2.9981,2.9981,0,0,0,2855.1084,1418.63123Z"/></g></svg>